<?xml version="1.0" encoding="utf-8"?>
<!-- Generator: Adobe Illustrator 16.0.4, SVG Export Plug-In . SVG Version: 6.00 Build 0)  -->
<!DOCTYPE svg PUBLIC "-//W3C//DTD SVG 1.1//EN" "http://www.w3.org/Graphics/SVG/1.1/DTD/svg11.dtd">
<svg version="1.1" xmlns="http://www.w3.org/2000/svg" xmlns:xlink="http://www.w3.org/1999/xlink" x="0px" y="0px" width="20px"
	 height="40px" viewBox="0 0 20 40" enable-background="new 0 0 20 40" xml:space="preserve">
<g id="Layer_1">
	<path fill="#CCCCCC" d="M17.557,2h-15c-0.552,0-1,0.497-1,1.049v10c0,0.552,0.448,0.951,1,0.951h2v2.926
		c0,1.1,0.688,1.303,1.527,0.593L10.109,14h7.448c0.553,0,1-0.399,1-0.951v-10C18.557,2.497,18.109,2,17.557,2z"/>
	<path fill="#FE3E4D" d="M17.557,22h-15c-0.552,0-1,0.529-1,1.082v10c0,0.553,0.448,0.918,1,0.918h2v2.959
		c0,1.1,0.688,1.287,1.527,0.577L10.109,34h7.448c0.553,0,1-0.365,1-0.918v-10C18.557,22.529,18.109,22,17.557,22z"/>
</g>
<g id="Layer_2">
</g>
</svg>
