<?xml version="1.0" encoding="utf-8"?>
<!-- Generator: Adobe Illustrator 16.0.4, SVG Export Plug-In . SVG Version: 6.00 Build 0)  -->
<!DOCTYPE svg PUBLIC "-//W3C//DTD SVG 1.1//EN" "http://www.w3.org/Graphics/SVG/1.1/DTD/svg11.dtd">
<svg version="1.1" xmlns="http://www.w3.org/2000/svg" xmlns:xlink="http://www.w3.org/1999/xlink" x="0px" y="0px" width="42px"
	 height="42px" viewBox="0 0 42 42" enable-background="new 0 0 42 42" xml:space="preserve">
<g id="Layer_1">
	<g>
		<defs>
			<circle id="SVGID_1_" cx="21" cy="21" r="21"/>
		</defs>
		<clipPath id="SVGID_2_">
			<use xlink:href="#SVGID_1_"  overflow="visible"/>
		</clipPath>
		<g clip-path="url(#SVGID_2_)">
			<g>
				<defs>
					<rect id="SVGID_3_" x="-15.002" width="72.004" height="42"/>
				</defs>
				<clipPath id="SVGID_4_">
					<use xlink:href="#SVGID_3_"  overflow="visible"/>
				</clipPath>
				<rect x="-15.002" clip-path="url(#SVGID_4_)" width="72.004" height="14"/>
				<rect x="-15.002" y="14" clip-path="url(#SVGID_4_)" fill="#E1001F" width="72.004" height="14"/>
				<rect x="-15.002" y="28" clip-path="url(#SVGID_4_)" fill="#F6D928" width="72.004" height="14"/>
				<g clip-path="url(#SVGID_4_)">
					<defs>
						<rect id="SVGID_5_" x="-15.002" width="72.004" height="42"/>
					</defs>
					<clipPath id="SVGID_6_">
						<use xlink:href="#SVGID_5_"  overflow="visible"/>
					</clipPath>
					<path clip-path="url(#SVGID_6_)" fill="#F6D728" d="M11.033,9.943v16.811c0,6.294,8.456,5.54,9.967,8.055
						c1.511-2.515,9.967-1.761,9.967-8.055V9.943H11.033z"/>
					<g clip-path="url(#SVGID_6_)">
						<path d="M21,34.931l-0.055-0.088c-0.533-0.891-1.953-1.36-3.598-1.907c-2.841-0.945-6.377-2.117-6.377-6.182V9.881h20.059
							v16.873c0,4.064-3.535,5.236-6.378,6.182c-1.645,0.547-3.063,1.017-3.598,1.907L21,34.931L21,34.931z M11.097,10.005v16.749
							c0,3.974,3.342,5.084,6.291,6.062c1.616,0.537,3.02,1.002,3.612,1.876c0.593-0.874,1.995-1.339,3.612-1.876
							c2.948-0.979,6.292-2.089,6.292-6.062V10.005H11.097L11.097,10.005z"/>
					</g>
					<path clip-path="url(#SVGID_6_)" d="M20.345,12.36c0.102,0.501-0.1,1.709-0.351,2.112c-0.252,0.403-0.906,1.157-0.957,1.914
						c-0.252,3.775,1.157,9.26,1.963,13.187c0.806-3.927,2.215-9.411,1.964-13.187c-0.253-3.776-0.755-4.783-0.755-4.783
						L20.345,12.36z"/>
					<path clip-path="url(#SVGID_6_)" fill="#CA001C" d="M20.546,12.914c-0.938-0.069-1.728-0.253-2.365-0.554
						c0.269,0.334,0.873,0.602,1.812,0.804L20.546,12.914z"/>
					<g clip-path="url(#SVGID_6_)">
						<path d="M20,13.134c-0.957-0.141-1.572-0.416-1.844-0.754c0.669,0.25,1.461,0.435,2.393,0.501l-0.004,0.064
							c-0.94-0.069-1.739-0.255-2.377-0.559C18.468,12.668,19.07,12.936,20,13.134L20,13.134z"/>
					</g>
					<path clip-path="url(#SVGID_6_)" fill="#CA001C" d="M20.245,10.85c-1.511-0.756-2.417,0.1-1.409,1.458
						c0.1-0.251,1.057-0.604,1.509,0.606c-0.233,0.134-0.788,0.15-1.661,0.048c0.454,0.353,1.813,0.403,2.064,0.253
						c0.252-0.15-0.452-1.408-0.452-1.408L20.245,10.85z"/>
					<g clip-path="url(#SVGID_6_)">
						<path d="M20.172,13.325c-0.516,0-1.205-0.103-1.507-0.336c0.887,0.043,1.438,0.028,1.665-0.103
							c-0.284-0.68-0.714-0.792-0.946-0.794c-0.003,0-0.006,0-0.009,0c-0.27,0-0.473,0.133-0.51,0.229
							c-0.511-0.606-0.613-1.177-0.328-1.516c0.308-0.368,0.969-0.36,1.722,0.017l-0.028,0.058c-0.717-0.36-1.362-0.373-1.646-0.034
							c-0.265,0.315-0.161,0.854,0.275,1.444c-0.001-0.124,0.254-0.262,0.524-0.262c0.248,0.005,0.707,0.122,0.99,0.876
							c-0.257,0.176-0.805,0.193-1.694,0.093c0.46,0.282,1.806,0.339,2.052,0.193c0.163-0.1-0.198-0.89-0.465-1.368
							c0.176,0.184,0.762,1.263,0.497,1.42C20.674,13.296,20.448,13.325,20.172,13.325L20.172,13.325z"/>
					</g>
					<path clip-path="url(#SVGID_6_)" d="M22.107,11.907c0.252-0.052,0.655-0.203,0.957-0.503c-0.554,0-1.562-0.303-1.965-0.503
						c-0.401-0.203-1.105-0.654-1.105,0.2c0,0.857,0.904,1.511,0.754,2.215L22.107,11.907z"/>
					<path clip-path="url(#SVGID_6_)" fill="#F0F7FF" d="M20.849,11.353c0,0-0.504-0.253-0.604-0.353
						c-0.101-0.1-0.251,0.554,0.201,0.754C20.514,11.587,20.647,11.454,20.849,11.353L20.849,11.353z"/>
					<path clip-path="url(#SVGID_6_)" d="M20.497,11.05c-0.235,0.067-0.286,0.25-0.152,0.554c0.034-0.234,0.201-0.387,0.504-0.454
						L20.497,11.05z"/>
					<path clip-path="url(#SVGID_6_)" d="M23.215,17.895v5.94l6.744,5.537V14.623c0-1.139-0.233-1.912-0.704-2.315v3.071
						L23.215,17.895z"/>
					<g clip-path="url(#SVGID_6_)">
						<polygon fill="#F6D728" points="24.568,28.719 24.38,28.719 24.38,16.134 24.568,16.134 24.568,28.719 						"/>
					</g>
					<g clip-path="url(#SVGID_6_)">
						<polygon fill="#F6D728" points="25.978,28.719 25.789,28.719 25.789,16.134 25.978,16.134 25.978,28.719 						"/>
					</g>
					<g clip-path="url(#SVGID_6_)">
						<polygon fill="#F6D728" points="27.387,28.719 27.198,28.719 27.198,16.134 27.387,16.134 27.387,28.719 						"/>
					</g>
					<g clip-path="url(#SVGID_6_)">
						<polygon fill="#F6D728" points="28.796,28.719 28.607,28.719 28.607,16.134 28.796,16.134 28.796,28.719 						"/>
					</g>
					<path clip-path="url(#SVGID_6_)" d="M21.905,19.002c4.531,0,6.443-1.458,7.4-2.565V12.36c0.503-0.136,0.771-0.506,0.807-1.107
						c-1.411,1.155-3.625-1.561-4.934,1.258c0.704,1.408,2.113,1.258,2.616,0.451c1.008,0.857,0.203,4.079-5.89,4.028V19.002z"/>
					<path clip-path="url(#SVGID_6_)" fill="#CA001C" d="M23.566,28.869c-0.352,0.453-0.049,0.856,0.252,1.007
						c-0.1-0.303-0.05-0.587,0.151-0.854L23.566,28.869z"/>
					<g clip-path="url(#SVGID_6_)">
						<path d="M23.85,29.866c-0.209-0.043-0.403-0.217-0.458-0.456c-0.042-0.184,0.01-0.379,0.15-0.561l0.05,0.041
							c-0.131,0.167-0.177,0.336-0.139,0.506c0.049,0.217,0.229,0.377,0.38,0.451c-0.148-0.272-0.096-0.568,0.112-0.848
							C23.8,29.301,23.751,29.573,23.85,29.866L23.85,29.866z"/>
					</g>
					<path clip-path="url(#SVGID_6_)" fill="#CA001C" d="M25.329,30.58c0.033,0.203-0.066,0.453-0.303,0.757
						c0.604-0.15,0.856-0.354,0.655-0.704L25.329,30.58z"/>
					<g clip-path="url(#SVGID_6_)">
						<path d="M25.034,31.365c0.196-0.342,0.295-0.587,0.264-0.78l0.062-0.01c0.035,0.21-0.068,0.473-0.307,0.78
							c0.367-0.15,0.584-0.265,0.646-0.413c0.036-0.083,0.021-0.181-0.045-0.296c0.131,0.103,0.147,0.218,0.103,0.322
							C25.688,31.134,25.456,31.26,25.034,31.365L25.034,31.365z"/>
					</g>
					<path clip-path="url(#SVGID_6_)" fill="#CA001C" d="M27.344,29.826c0.101,0.236,0.115,0.503,0.049,0.807
						c0.453-0.403,0.605-0.957,0.252-1.06L27.344,29.826z"/>
					<g clip-path="url(#SVGID_6_)">
						<path d="M27.414,30.654c0.013-0.325-0.004-0.59-0.099-0.816l0.057-0.024c0.103,0.239,0.119,0.516,0.052,0.824
							c0.245-0.294,0.426-0.647,0.376-0.864c-0.02-0.086-0.074-0.144-0.164-0.17c0.13-0.028,0.201,0.046,0.226,0.155
							C27.916,30.002,27.732,30.37,27.414,30.654L27.414,30.654z"/>
					</g>
					<path clip-path="url(#SVGID_6_)" fill="#CA001C" d="M27.292,28.015c0.167,0.033,0.336,0.2,0.503,0.503
						c0.051-0.554-0.051-0.856-0.554-0.957L27.292,28.015z"/>
					<g clip-path="url(#SVGID_6_)">
						<path d="M27.826,28.521c-0.22-0.279-0.382-0.444-0.54-0.478l0.012-0.06c0.177,0.036,0.354,0.21,0.525,0.518
							c-0.005-0.58-0.144-0.82-0.588-0.909C27.795,27.64,27.876,27.99,27.826,28.521L27.826,28.521z"/>
					</g>
					<path clip-path="url(#SVGID_6_)" fill="#CA001C" d="M22.862,26.354l2.367,2.164c0,0-0.907,0.201-1.26,0.201
						c-0.352,0-0.653,0.1-0.554,0.2c0.102,0.103,0.303,0.103,0.402,0.253c0.101,0.15,0.253,0.354,0.454,0.15
						c0.2-0.2,0.906-0.403,0.906-0.403s0,1.16-0.051,1.311s-0.202,0.451-0.102,0.451c0.102,0,0.102-0.048,0.503,0
						c0.404,0.052,0.354,0.152,0.254-0.451c-0.102-0.604-0.051-1.258-0.051-1.258s0.904,0.602,1.208,1.005
						c0.301,0.403,0.25,0.103,0.403-0.051c0.15-0.15,0.351-0.2,0.502-0.25c0.152-0.051-0.401-0.203-0.554-0.304
						c-0.151-0.1-1.309-0.754-1.309-0.754s0.653-0.2,1.057-0.253c0.404-0.05,0.404-0.05,0.353-0.251c-0.049-0.2,0-0.403,0-0.503
						c0-0.101-0.049-0.201-0.302,0c-0.252,0.2-1.409,0.704-1.409,0.704l-1.963-2.616L22.862,26.354z"/>
					<g clip-path="url(#SVGID_6_)">
						<path d="M25.797,30.752c-0.028,0-0.065-0.008-0.114-0.015l-0.155-0.023c-0.286-0.038-0.365-0.021-0.423-0.01l-0.13-0.017
							c-0.035-0.053,0.005-0.165,0.075-0.342l0.048-0.129c0.041-0.116,0.048-0.966,0.049-1.293
							c-0.031,0.048-0.668,0.236-0.853,0.422c-0.067,0.067-0.132,0.101-0.211,0.091c-0.117-0.01-0.21-0.124-0.291-0.248
							c-0.052-0.079-0.138-0.112-0.221-0.147c-0.067-0.026-0.13-0.053-0.178-0.099l-0.014-0.017l-0.009-0.076
							c0.044-0.105,0.343-0.162,0.599-0.162c0.346,0,1.242-0.198,1.252-0.2l-2.379-2.112l0.041-0.046l2.367,2.165
							c-0.053,0.062-0.929,0.255-1.281,0.255c-0.303,0-0.519,0.074-0.54,0.127c0.048,0.06,0.104,0.083,0.166,0.107
							c0.087,0.036,0.186,0.074,0.249,0.172c0.073,0.109,0.153,0.21,0.246,0.22c0.051,0.005,0.104-0.02,0.158-0.074
							c0.204-0.205,0.892-0.403,0.92-0.41c0.041,0.076,0.04,1.193-0.012,1.348l-0.05,0.129c-0.032,0.084-0.101,0.256-0.081,0.284
							c0.129-0.021,0.214-0.038,0.508-0.002l0.16,0.026c0.053,0.009,0.112,0.021,0.123,0.012c0.013-0.017-0.004-0.114-0.025-0.227
							l-0.04-0.227c-0.101-0.602-0.053-1.261-0.052-1.266c0.086,0,0.963,0.587,1.266,0.988c0.117,0.157,0.143,0.174,0.194,0.188
							c0.019,0,0.041-0.045,0.062-0.088c0.024-0.048,0.053-0.107,0.098-0.153c0.139-0.139,0.315-0.195,0.459-0.241
							c0.048-0.03-0.109-0.093-0.213-0.133c-0.113-0.046-0.231-0.091-0.291-0.132c-0.15-0.101-1.306-0.752-1.306-0.752
							c0.012-0.062,0.667-0.26,1.067-0.312c0.206-0.023,0.319-0.038,0.342-0.071c0.015-0.021,0.003-0.069-0.016-0.141
							c-0.038-0.15-0.021-0.299-0.009-0.408c0.005-0.041,0.008-0.076,0.008-0.103c-0.044-0.089-0.102-0.096-0.252,0.023
							c-0.25,0.203-1.368,0.689-1.415,0.711l-2.002-2.627l2.014,2.577c-0.005-0.023,1.122-0.516,1.365-0.709
							c0.132-0.104,0.227-0.143,0.289-0.112c0.028,0.013,0.064,0.048,0.064,0.137c0,0.028-0.005,0.066-0.01,0.109
							c-0.011,0.105-0.026,0.248,0.008,0.387c0.023,0.091,0.038,0.146,0.007,0.19c-0.038,0.056-0.133,0.067-0.386,0.099
							c-0.366,0.048-0.953,0.222-1.04,0.248c0.118,0.015,1.163,0.606,1.307,0.701c0.054,0.036,0.168,0.084,0.279,0.127
							c0.233,0.091,0.314,0.129,0.313,0.182l-0.106,0.069c-0.143,0.047-0.306,0.098-0.432,0.224
							c-0.038,0.041-0.064,0.094-0.086,0.139c-0.031,0.062-0.058,0.117-0.114,0.122c-0.061,0.005-0.132-0.056-0.251-0.21
							c-0.279-0.375-1.097-0.932-1.191-0.996c0.034,0.067-0.002,0.671,0.091,1.223l0.041,0.224c0.033,0.177,0.045,0.244,0.007,0.282
							C25.846,30.744,25.826,30.752,25.797,30.752L25.797,30.752z"/>
					</g>
					<path clip-path="url(#SVGID_6_)" d="M21,32.897l1.058-1.26c1.207,0.739,2.098,0.536,2.668-0.604
						c-1.812,0.304-2.668-1.341-2.568-4.933l1.36,2.114v-1.962l1.661,0.2l-4.381-4.683L21,32.897z"/>
					<path clip-path="url(#SVGID_6_)" d="M18.785,17.895v5.94l-6.745,5.537V14.623c0-1.139,0.235-1.912,0.705-2.315v3.071
						L18.785,17.895z"/>
					<g clip-path="url(#SVGID_6_)">
						<polygon fill="#F6D728" points="17.621,28.719 17.433,28.719 17.433,16.134 17.621,16.134 17.621,28.719 						"/>
					</g>
					<g clip-path="url(#SVGID_6_)">
						<polygon fill="#F6D728" points="16.212,28.719 16.023,28.719 16.023,16.134 16.212,16.134 16.212,28.719 						"/>
					</g>
					<g clip-path="url(#SVGID_6_)">
						<polygon fill="#F6D728" points="14.802,28.719 14.613,28.719 14.613,16.134 14.802,16.134 14.802,28.719 						"/>
					</g>
					<g clip-path="url(#SVGID_6_)">
						<polygon fill="#F6D728" points="13.393,28.719 13.204,28.719 13.204,16.134 13.393,16.134 13.393,28.719 						"/>
					</g>
					<path clip-path="url(#SVGID_6_)" d="M20.094,19.002c-4.53,0-6.443-1.458-7.399-2.565V12.36
						c-0.504-0.136-0.771-0.506-0.806-1.107c1.409,1.155,3.625-1.561,4.934,1.258c-0.705,1.408-2.114,1.258-2.618,0.451
						c-1.007,0.857-0.201,4.079,5.89,4.028V19.002z"/>
					<path clip-path="url(#SVGID_6_)" fill="#CA001C" d="M18.433,28.869c0.353,0.453,0.051,0.856-0.252,1.007
						c0.102-0.303,0.051-0.587-0.15-0.854L18.433,28.869z"/>
					<g clip-path="url(#SVGID_6_)">
						<path d="M18.195,29.904c0.054-0.331,0.006-0.604-0.19-0.863c0.258,0.238,0.31,0.534,0.207,0.847
							c0.106-0.114,0.286-0.274,0.335-0.491c0.038-0.17-0.009-0.339-0.14-0.506l0.05-0.041c0.142,0.182,0.193,0.377,0.151,0.561
							C18.555,29.649,18.359,29.823,18.195,29.904L18.195,29.904z"/>
					</g>
					<path clip-path="url(#SVGID_6_)" fill="#CA001C" d="M16.671,30.58c-0.033,0.203,0.067,0.453,0.303,0.757
						c-0.604-0.15-0.856-0.354-0.655-0.704L16.671,30.58z"/>
					<g clip-path="url(#SVGID_6_)">
						<path d="M16.998,31.315c-0.455-0.056-0.685-0.182-0.756-0.347c-0.044-0.104-0.027-0.22,0.049-0.353
							c-0.012,0.146-0.026,0.243,0.01,0.326c0.062,0.148,0.279,0.263,0.68,0.363c-0.271-0.258-0.375-0.521-0.341-0.73l0.062,0.01
							C16.67,30.778,16.77,31.023,16.998,31.315L16.998,31.315z"/>
					</g>
					<path clip-path="url(#SVGID_6_)" fill="#CA001C" d="M14.657,29.826c-0.101,0.236-0.117,0.503-0.05,0.807
						c-0.453-0.403-0.604-0.957-0.252-1.06L14.657,29.826z"/>
					<g clip-path="url(#SVGID_6_)">
						<path d="M14.638,30.625c-0.37-0.255-0.555-0.623-0.499-0.866c0.025-0.109,0.098-0.184,0.208-0.215
							c-0.071,0.086-0.127,0.144-0.146,0.229c-0.05,0.217,0.13,0.57,0.428,0.835c-0.12-0.276-0.103-0.554,0.001-0.795l0.057,0.024
							C14.589,30.066,14.572,30.332,14.638,30.625L14.638,30.625z"/>
					</g>
					<path clip-path="url(#SVGID_6_)" fill="#CA001C" d="M14.708,28.015c-0.168,0.033-0.336,0.2-0.504,0.503
						c-0.05-0.554,0.051-0.856,0.554-0.957L14.708,28.015z"/>
					<g clip-path="url(#SVGID_6_)">
						<path d="M14.231,28.532c-0.106-0.542-0.026-0.893,0.521-1.002c-0.432,0.15-0.569,0.391-0.517,0.982
							c0.116-0.324,0.288-0.493,0.466-0.529l0.014,0.06C14.557,28.076,14.395,28.241,14.231,28.532L14.231,28.532z"/>
					</g>
					<path clip-path="url(#SVGID_6_)" fill="#CA001C" d="M19.138,26.354l-2.366,2.164c0,0,0.906,0.201,1.259,0.201
						c0.352,0,0.653,0.1,0.554,0.2c-0.101,0.103-0.302,0.103-0.403,0.253c-0.1,0.15-0.251,0.354-0.452,0.15
						c-0.201-0.2-0.906-0.403-0.906-0.403s0,1.16,0.05,1.311c0.051,0.15,0.201,0.451,0.102,0.451c-0.102,0-0.102-0.048-0.504,0
						c-0.402,0.052-0.353,0.152-0.252-0.451c0.101-0.604,0.051-1.258,0.051-1.258s-0.906,0.602-1.208,1.005
						s-0.252,0.103-0.403-0.051c-0.15-0.15-0.352-0.2-0.503-0.25c-0.151-0.051,0.402-0.203,0.554-0.304
						c0.15-0.1,1.309-0.754,1.309-0.754s-0.654-0.2-1.057-0.253c-0.403-0.05-0.403-0.05-0.353-0.251c0.05-0.2,0-0.403,0-0.503
						c0-0.101,0.05-0.201,0.302,0c0.252,0.2,1.409,0.704,1.409,0.704l1.964-2.616L19.138,26.354z"/>
					<g clip-path="url(#SVGID_6_)">
						<path d="M16.202,30.752c-0.027,0-0.048-0.008-0.064-0.021c-0.036-0.038-0.024-0.105,0.009-0.282l0.04-0.224
							c0.094-0.563,0.056-1.18,0.051-1.246c-0.03,0.071-0.868,0.64-1.151,1.02c-0.119,0.154-0.19,0.215-0.252,0.21
							c-0.055-0.005-0.082-0.06-0.112-0.122c-0.022-0.045-0.048-0.098-0.087-0.136c-0.126-0.129-0.288-0.18-0.431-0.227
							l-0.107-0.069c-0.002-0.053,0.08-0.091,0.314-0.182c0.11-0.043,0.225-0.091,0.279-0.127c0.14-0.093,1.153-0.665,1.294-0.747
							c-0.107,0.005-0.67-0.157-1.028-0.202c-0.253-0.031-0.347-0.043-0.386-0.099c-0.03-0.045-0.017-0.1,0.007-0.19
							c0.034-0.139,0.019-0.281,0.007-0.387c-0.004-0.043-0.008-0.081-0.008-0.109c0-0.089,0.034-0.124,0.063-0.137
							c0.062-0.03,0.157,0.008,0.289,0.112c0.246,0.196,1.391,0.694,1.402,0.699l1.925-2.608l-1.912,2.656
							c-0.086-0.01-1.202-0.496-1.454-0.699c-0.149-0.119-0.206-0.112-0.223-0.104c-0.028,0.107-0.024,0.143-0.02,0.184
							c0.012,0.109,0.027,0.258-0.01,0.408c-0.018,0.071-0.03,0.119-0.017,0.141c0.023,0.033,0.137,0.048,0.342,0.071
							c0.401,0.053,1.056,0.251,1.063,0.256c0.006,0.057-1.15,0.708-1.301,0.809c-0.061,0.041-0.178,0.086-0.292,0.132
							c-0.103,0.04-0.259,0.103-0.275,0.129c0.207,0.05,0.385,0.106,0.521,0.245c0.046,0.046,0.075,0.105,0.098,0.153
							c0.021,0.043,0.043,0.088,0.063,0.088c0.035-0.015,0.076-0.031,0.194-0.188c0.302-0.401,1.179-0.988,1.216-1.012
							c0.049,0.028,0.098,0.688-0.003,1.289l-0.039,0.227c-0.021,0.112-0.04,0.21-0.026,0.227c0.011,0.01,0.07-0.003,0.124-0.012
							l0.159-0.026c0.293-0.036,0.379-0.02,0.44-0.008c0.086-0.019,0.018-0.193-0.016-0.276l-0.049-0.127
							c-0.051-0.154-0.051-1.271-0.051-1.319c0.071-0.02,0.755,0.177,0.959,0.382c0.056,0.055,0.11,0.079,0.159,0.074
							c0.093-0.01,0.173-0.11,0.246-0.22c0.063-0.098,0.162-0.136,0.25-0.172c0.061-0.024,0.118-0.048,0.156-0.086
							c-0.013-0.074-0.229-0.148-0.531-0.148c-0.353,0-1.229-0.193-1.266-0.2l2.352-2.22l0.042,0.046L16.8,28.534
							c0.079-0.028,0.904,0.153,1.23,0.153c0.257,0,0.555,0.057,0.599,0.162l0.008,0.021l-0.031,0.071
							c-0.047,0.046-0.11,0.072-0.177,0.099c-0.083,0.035-0.169,0.068-0.222,0.147c-0.081,0.124-0.173,0.238-0.291,0.248
							c-0.072,0.01-0.142-0.023-0.211-0.091c-0.192-0.195-0.885-0.394-0.892-0.396c0.04,0.291,0.049,1.147,0.088,1.267l0.048,0.127
							c0.07,0.179,0.112,0.291,0.076,0.344l-0.131,0.017c-0.058-0.012-0.139-0.026-0.421,0.01l-0.156,0.023
							C16.269,30.744,16.231,30.752,16.202,30.752L16.202,30.752z"/>
					</g>
					<path clip-path="url(#SVGID_6_)" d="M21,32.897l-1.057-1.26c-1.209,0.739-2.098,0.536-2.668-0.604
						c1.812,0.304,2.668-1.341,2.566-4.933l-1.358,2.114v-1.962l-1.661,0.2l4.379-4.683L21,32.897z"/>
				</g>
			</g>
		</g>
	</g>
</g>
<g id="Layer_2" display="none">
	<g display="inline">
		<path d="M21,1c11.028,0,20,8.972,20,20c0,11.028-8.972,20-20,20C9.972,41,1,32.028,1,21C1,9.972,9.972,1,21,1 M21,0
			C9.402,0,0,9.401,0,21c0,11.597,9.402,21,21,21s21-9.403,21-21C42,9.401,32.598,0,21,0L21,0z"/>
	</g>
</g>
</svg>
