<?xml version="1.0" encoding="utf-8"?>
<!-- Generator: Adobe Illustrator 16.0.4, SVG Export Plug-In . SVG Version: 6.00 Build 0)  -->
<!DOCTYPE svg PUBLIC "-//W3C//DTD SVG 1.1//EN" "http://www.w3.org/Graphics/SVG/1.1/DTD/svg11.dtd">
<svg version="1.1" id="Layer_1" xmlns="http://www.w3.org/2000/svg" xmlns:xlink="http://www.w3.org/1999/xlink" x="0px" y="0px"
	 width="42px" height="42px" viewBox="0 0 42 42" enable-background="new 0 0 42 42" xml:space="preserve">
<g>
	<defs>
		<circle id="SVGID_1_" cx="21" cy="21" r="21"/>
	</defs>
	<clipPath id="SVGID_2_">
		<use xlink:href="#SVGID_1_"  overflow="visible"/>
	</clipPath>
	<g clip-path="url(#SVGID_2_)">
		<g>
			<defs>
				<rect id="SVGID_3_" x="-10.999" width="71.998" height="42"/>
			</defs>
			<clipPath id="SVGID_4_">
				<use xlink:href="#SVGID_3_"  overflow="visible"/>
			</clipPath>
			<rect x="-10.999" y="38.768" clip-path="url(#SVGID_4_)" fill="#CB001C" width="71.998" height="3.232"/>
			<rect x="-10.999" y="35.537" clip-path="url(#SVGID_4_)" fill="#FFFFFF" width="71.998" height="3.23"/>
			<rect x="-10.999" y="32.308" clip-path="url(#SVGID_4_)" fill="#CB001C" width="71.998" height="3.229"/>
			<rect x="-10.999" y="29.076" clip-path="url(#SVGID_4_)" fill="#FFFFFF" width="71.998" height="3.231"/>
			<rect x="-10.999" y="25.846" clip-path="url(#SVGID_4_)" fill="#CB001C" width="71.998" height="3.23"/>
			<rect x="-10.999" y="22.617" clip-path="url(#SVGID_4_)" fill="#FFFFFF" width="71.998" height="3.229"/>
			<rect x="-10.999" y="19.385" clip-path="url(#SVGID_4_)" fill="#CB001C" width="71.998" height="3.232"/>
			<rect x="-10.999" y="16.154" clip-path="url(#SVGID_4_)" fill="#FFFFFF" width="71.998" height="3.229"/>
			<rect x="-10.999" y="12.922" clip-path="url(#SVGID_4_)" fill="#CB001C" width="71.998" height="3.232"/>
			<rect x="-10.999" y="9.691" clip-path="url(#SVGID_4_)" fill="#FFFFFF" width="71.998" height="3.23"/>
			<rect x="-10.999" y="6.46" clip-path="url(#SVGID_4_)" fill="#CB001C" width="71.998" height="3.231"/>
			<rect x="-10.999" y="3.231" clip-path="url(#SVGID_4_)" fill="#FFFFFF" width="71.998" height="3.229"/>
			<rect x="-10.999" clip-path="url(#SVGID_4_)" fill="#CB001C" width="71.998" height="3.231"/>
			<rect x="-10.999" clip-path="url(#SVGID_4_)" fill="#2A3560" width="32.87" height="22.617"/>
			<polygon clip-path="url(#SVGID_4_)" fill="#FFFFFF" points="-8.034,2.491 -7.755,3.348 -6.86,3.348 -7.585,3.875 -7.308,4.729 
				-8.034,4.2 -8.762,4.729 -8.484,3.875 -9.211,3.348 -8.312,3.348 			"/>
			<polygon clip-path="url(#SVGID_4_)" fill="#FFFFFF" points="-8.034,6.268 -7.755,7.121 -6.86,7.121 -7.585,7.648 -7.308,8.505 
				-8.034,7.975 -8.762,8.505 -8.484,7.648 -9.211,7.121 -8.312,7.121 			"/>
			<polygon clip-path="url(#SVGID_4_)" fill="#FFFFFF" points="-8.034,10.042 -7.755,10.896 -6.86,10.896 -7.585,11.424 
				-7.308,12.281 -8.034,11.75 -8.762,12.281 -8.484,11.424 -9.211,10.896 -8.312,10.896 			"/>
			<polygon clip-path="url(#SVGID_4_)" fill="#FFFFFF" points="-8.034,13.817 -7.755,14.672 -6.86,14.672 -7.585,15.201 
				-7.308,16.054 -8.034,15.526 -8.762,16.054 -8.484,15.201 -9.211,14.672 -8.312,14.672 			"/>
			<polygon clip-path="url(#SVGID_4_)" fill="#FFFFFF" points="-8.034,17.593 -7.755,18.447 -6.86,18.447 -7.585,18.975 
				-7.308,19.828 -8.034,19.301 -8.762,19.828 -8.484,18.975 -9.211,18.447 -8.312,18.447 			"/>
			<polygon clip-path="url(#SVGID_4_)" fill="#FFFFFF" points="-5.405,4.481 -5.129,5.336 -4.229,5.336 -4.957,5.863 -4.679,6.718 
				-5.405,6.19 -6.134,6.718 -5.856,5.863 -6.582,5.336 -5.684,5.336 			"/>
			<polygon clip-path="url(#SVGID_4_)" fill="#FFFFFF" points="-5.405,8.257 -5.129,9.109 -4.229,9.109 -4.957,9.639 -4.679,10.492 
				-5.405,9.966 -6.134,10.492 -5.856,9.639 -6.582,9.109 -5.684,9.109 			"/>
			<polygon clip-path="url(#SVGID_4_)" fill="#FFFFFF" points="-5.405,12.029 -5.129,12.885 -4.229,12.885 -4.957,13.414 
				-4.679,14.268 -5.405,13.741 -6.134,14.268 -5.856,13.414 -6.582,12.885 -5.684,12.885 			"/>
			<polygon clip-path="url(#SVGID_4_)" fill="#FFFFFF" points="-5.405,15.805 -5.129,16.66 -4.229,16.66 -4.957,17.189 
				-4.679,18.041 -5.405,17.514 -6.134,18.041 -5.856,17.189 -6.582,16.66 -5.684,16.66 			"/>
			<polygon clip-path="url(#SVGID_4_)" fill="#FFFFFF" points="-2.742,2.491 -2.466,3.348 -1.567,3.348 -2.294,3.875 -2.017,4.729 
				-2.742,4.2 -3.469,4.729 -3.193,3.875 -3.919,3.348 -3.021,3.348 			"/>
			<polygon clip-path="url(#SVGID_4_)" fill="#FFFFFF" points="-2.742,6.268 -2.466,7.121 -1.567,7.121 -2.294,7.648 -2.017,8.505 
				-2.742,7.975 -3.469,8.505 -3.193,7.648 -3.919,7.121 -3.021,7.121 			"/>
			<polygon clip-path="url(#SVGID_4_)" fill="#FFFFFF" points="-2.742,10.042 -2.466,10.896 -1.567,10.896 -2.294,11.424 
				-2.017,12.281 -2.742,11.75 -3.469,12.281 -3.193,11.424 -3.919,10.896 -3.021,10.896 			"/>
			<polygon clip-path="url(#SVGID_4_)" fill="#FFFFFF" points="-2.742,13.817 -2.466,14.672 -1.567,14.672 -2.294,15.201 
				-2.017,16.054 -2.742,15.526 -3.469,16.054 -3.193,15.201 -3.919,14.672 -3.021,14.672 			"/>
			<polygon clip-path="url(#SVGID_4_)" fill="#FFFFFF" points="-2.742,17.593 -2.466,18.447 -1.567,18.447 -2.294,18.975 
				-2.017,19.828 -2.742,19.301 -3.469,19.828 -3.193,18.975 -3.919,18.447 -3.021,18.447 			"/>
			<polygon clip-path="url(#SVGID_4_)" fill="#FFFFFF" points="-0.114,4.481 0.165,5.336 1.062,5.336 0.336,5.863 0.613,6.718 
				-0.114,6.19 -0.842,6.718 -0.564,5.863 -1.289,5.336 -0.392,5.336 			"/>
			<polygon clip-path="url(#SVGID_4_)" fill="#FFFFFF" points="-0.114,8.257 0.165,9.109 1.062,9.109 0.336,9.639 0.613,10.492 
				-0.114,9.966 -0.842,10.492 -0.564,9.639 -1.289,9.109 -0.392,9.109 			"/>
			<polygon clip-path="url(#SVGID_4_)" fill="#FFFFFF" points="-0.114,12.029 0.165,12.885 1.062,12.885 0.336,13.414 0.613,14.268 
				-0.114,13.741 -0.842,14.268 -0.564,13.414 -1.289,12.885 -0.392,12.885 			"/>
			<polygon clip-path="url(#SVGID_4_)" fill="#FFFFFF" points="-0.114,15.805 0.165,16.66 1.062,16.66 0.336,17.189 0.613,18.041 
				-0.114,17.514 -0.842,18.041 -0.564,17.189 -1.289,16.66 -0.392,16.66 			"/>
			<polygon clip-path="url(#SVGID_4_)" fill="#FFFFFF" points="2.549,2.491 2.827,3.348 3.726,3.348 2.997,3.875 3.276,4.729 
				2.549,4.2 1.82,4.729 2.1,3.875 1.372,3.348 2.271,3.348 			"/>
			<polygon clip-path="url(#SVGID_4_)" fill="#FFFFFF" points="2.549,6.268 2.827,7.121 3.726,7.121 2.997,7.648 3.276,8.505 
				2.549,7.975 1.82,8.505 2.1,7.648 1.372,7.121 2.271,7.121 			"/>
			<polygon clip-path="url(#SVGID_4_)" fill="#FFFFFF" points="2.549,10.042 2.827,10.896 3.726,10.896 2.997,11.424 3.276,12.281 
				2.549,11.75 1.82,12.281 2.1,11.424 1.372,10.896 2.271,10.896 			"/>
			<polygon clip-path="url(#SVGID_4_)" fill="#FFFFFF" points="2.549,13.817 2.827,14.672 3.726,14.672 2.997,15.201 3.276,16.054 
				2.549,15.526 1.82,16.054 2.1,15.201 1.372,14.672 2.271,14.672 			"/>
			<polygon clip-path="url(#SVGID_4_)" fill="#FFFFFF" points="2.549,17.593 2.827,18.447 3.726,18.447 2.997,18.975 3.276,19.828 
				2.549,19.301 1.82,19.828 2.1,18.975 1.372,18.447 2.271,18.447 			"/>
			<polygon clip-path="url(#SVGID_4_)" fill="#FFFFFF" points="5.178,4.481 5.454,5.336 6.354,5.336 5.627,5.863 5.904,6.718 
				5.178,6.19 4.451,6.718 4.727,5.863 4.002,5.336 4.899,5.336 			"/>
			<polygon clip-path="url(#SVGID_4_)" fill="#FFFFFF" points="5.178,8.257 5.454,9.109 6.354,9.109 5.627,9.639 5.904,10.492 
				5.178,9.966 4.451,10.492 4.727,9.639 4.002,9.109 4.899,9.109 			"/>
			<polygon clip-path="url(#SVGID_4_)" fill="#FFFFFF" points="5.178,12.029 5.454,12.885 6.354,12.885 5.627,13.414 5.904,14.268 
				5.178,13.741 4.451,14.268 4.727,13.414 4.002,12.885 4.899,12.885 			"/>
			<polygon clip-path="url(#SVGID_4_)" fill="#FFFFFF" points="5.178,15.805 5.454,16.66 6.354,16.66 5.627,17.189 5.904,18.041 
				5.178,17.514 4.451,18.041 4.727,17.189 4.002,16.66 4.899,16.66 			"/>
			<polygon clip-path="url(#SVGID_4_)" fill="#FFFFFF" points="7.842,2.491 8.119,3.348 9.017,3.348 8.291,3.875 8.567,4.729 
				7.842,4.2 7.114,4.729 7.392,3.875 6.664,3.348 7.562,3.348 			"/>
			<polygon clip-path="url(#SVGID_4_)" fill="#FFFFFF" points="7.842,6.268 8.119,7.121 9.017,7.121 8.291,7.648 8.567,8.505 
				7.842,7.975 7.114,8.505 7.392,7.648 6.664,7.121 7.562,7.121 			"/>
			<polygon clip-path="url(#SVGID_4_)" fill="#FFFFFF" points="7.842,10.042 8.119,10.896 9.017,10.896 8.291,11.424 8.567,12.281 
				7.842,11.75 7.114,12.281 7.392,11.424 6.664,10.896 7.562,10.896 			"/>
			<polygon clip-path="url(#SVGID_4_)" fill="#FFFFFF" points="7.842,13.817 8.119,14.672 9.017,14.672 8.291,15.201 8.567,16.054 
				7.842,15.526 7.114,16.054 7.392,15.201 6.664,14.672 7.562,14.672 			"/>
			<polygon clip-path="url(#SVGID_4_)" fill="#FFFFFF" points="7.842,17.593 8.119,18.447 9.017,18.447 8.291,18.975 8.567,19.828 
				7.842,19.301 7.114,19.828 7.392,18.975 6.664,18.447 7.562,18.447 			"/>
			<polygon clip-path="url(#SVGID_4_)" fill="#FFFFFF" points="10.469,4.481 10.747,5.336 11.646,5.336 10.919,5.863 11.196,6.718 
				10.469,6.19 9.74,6.718 10.02,5.863 9.293,5.336 10.191,5.336 			"/>
			<polygon clip-path="url(#SVGID_4_)" fill="#FFFFFF" points="10.469,8.257 10.747,9.109 11.646,9.109 10.919,9.639 11.196,10.492 
				10.469,9.966 9.74,10.492 10.02,9.639 9.293,9.109 10.191,9.109 			"/>
			<polygon clip-path="url(#SVGID_4_)" fill="#FFFFFF" points="10.469,12.029 10.747,12.885 11.646,12.885 10.919,13.414 
				11.196,14.268 10.469,13.741 9.74,14.268 10.02,13.414 9.293,12.885 10.191,12.885 			"/>
			<polygon clip-path="url(#SVGID_4_)" fill="#FFFFFF" points="10.469,15.805 10.747,16.66 11.646,16.66 10.919,17.189 
				11.196,18.041 10.469,17.514 9.74,18.041 10.02,17.189 9.293,16.66 10.191,16.66 			"/>
			<polygon clip-path="url(#SVGID_4_)" fill="#FFFFFF" points="13.133,2.491 13.41,3.348 14.31,3.348 13.582,3.875 13.86,4.729 
				13.133,4.2 12.406,4.729 12.683,3.875 11.955,3.348 12.855,3.348 			"/>
			<polygon clip-path="url(#SVGID_4_)" fill="#FFFFFF" points="13.133,6.268 13.41,7.121 14.31,7.121 13.582,7.648 13.86,8.505 
				13.133,7.975 12.406,8.505 12.683,7.648 11.955,7.121 12.855,7.121 			"/>
			<polygon clip-path="url(#SVGID_4_)" fill="#FFFFFF" points="13.133,10.042 13.41,10.896 14.31,10.896 13.582,11.424 
				13.86,12.281 13.133,11.75 12.406,12.281 12.683,11.424 11.955,10.896 12.855,10.896 			"/>
			<polygon clip-path="url(#SVGID_4_)" fill="#FFFFFF" points="13.133,13.817 13.41,14.672 14.31,14.672 13.582,15.201 
				13.86,16.054 13.133,15.526 12.406,16.054 12.683,15.201 11.955,14.672 12.855,14.672 			"/>
			<polygon clip-path="url(#SVGID_4_)" fill="#FFFFFF" points="13.133,17.593 13.41,18.447 14.31,18.447 13.582,18.975 
				13.86,19.828 13.133,19.301 12.406,19.828 12.683,18.975 11.955,18.447 12.855,18.447 			"/>
			<polygon clip-path="url(#SVGID_4_)" fill="#FFFFFF" points="15.762,4.481 16.04,5.336 16.938,5.336 16.211,5.863 16.487,6.718 
				15.762,6.19 15.035,6.718 15.312,5.863 14.586,5.336 15.482,5.336 			"/>
			<polygon clip-path="url(#SVGID_4_)" fill="#FFFFFF" points="15.762,8.257 16.04,9.109 16.938,9.109 16.211,9.639 16.487,10.492 
				15.762,9.966 15.035,10.492 15.312,9.639 14.586,9.109 15.482,9.109 			"/>
			<polygon clip-path="url(#SVGID_4_)" fill="#FFFFFF" points="15.762,12.029 16.04,12.885 16.938,12.885 16.211,13.414 
				16.487,14.268 15.762,13.741 15.035,14.268 15.312,13.414 14.586,12.885 15.482,12.885 			"/>
			<polygon clip-path="url(#SVGID_4_)" fill="#FFFFFF" points="15.762,15.805 16.04,16.66 16.938,16.66 16.211,17.189 
				16.487,18.041 15.762,17.514 15.035,18.041 15.312,17.189 14.586,16.66 15.482,16.66 			"/>
			<polygon clip-path="url(#SVGID_4_)" fill="#FFFFFF" points="18.424,2.491 18.702,3.348 19.601,3.348 18.875,3.875 19.152,4.729 
				18.424,4.2 17.696,4.729 17.975,3.875 17.248,3.348 18.147,3.348 			"/>
			<polygon clip-path="url(#SVGID_4_)" fill="#FFFFFF" points="18.424,6.268 18.702,7.121 19.601,7.121 18.875,7.648 19.152,8.505 
				18.424,7.975 17.696,8.505 17.975,7.648 17.248,7.121 18.147,7.121 			"/>
			<polygon clip-path="url(#SVGID_4_)" fill="#FFFFFF" points="18.424,10.042 18.702,10.896 19.601,10.896 18.875,11.424 
				19.152,12.281 18.424,11.75 17.696,12.281 17.975,11.424 17.248,10.896 18.147,10.896 			"/>
			<polygon clip-path="url(#SVGID_4_)" fill="#FFFFFF" points="18.424,13.817 18.702,14.672 19.601,14.672 18.875,15.201 
				19.152,16.054 18.424,15.526 17.696,16.054 17.975,15.201 17.248,14.672 18.147,14.672 			"/>
			<polygon clip-path="url(#SVGID_4_)" fill="#FFFFFF" points="18.424,17.593 18.702,18.447 19.601,18.447 18.875,18.975 
				19.152,19.828 18.424,19.301 17.696,19.828 17.975,18.975 17.248,18.447 18.147,18.447 			"/>
		</g>
	</g>
</g>
</svg>
