<?xml version="1.0" encoding="utf-8"?>
<!-- Generator: Adobe Illustrator 16.0.4, SVG Export Plug-In . SVG Version: 6.00 Build 0)  -->
<!DOCTYPE svg PUBLIC "-//W3C//DTD SVG 1.1//EN" "http://www.w3.org/Graphics/SVG/1.1/DTD/svg11.dtd">
<svg version="1.1" id="Layer_1" xmlns="http://www.w3.org/2000/svg" xmlns:xlink="http://www.w3.org/1999/xlink" x="0px" y="0px"
	 width="42px" height="42px" viewBox="0 0 42 42" enable-background="new 0 0 42 42" xml:space="preserve">
<g>
	<defs>
		<circle id="SVGID_1_" cx="21" cy="21" r="21"/>
	</defs>
	<clipPath id="SVGID_2_">
		<use xlink:href="#SVGID_1_"  overflow="visible"/>
	</clipPath>
	<g clip-path="url(#SVGID_2_)">
		<g>
			<defs>
				<rect id="SVGID_3_" x="-15" width="72" height="42"/>
			</defs>
			<clipPath id="SVGID_4_">
				<use xlink:href="#SVGID_3_"  overflow="visible"/>
			</clipPath>
			<rect x="-15" clip-path="url(#SVGID_4_)" fill="#3C9242" width="72.001" height="42"/>
			<polygon clip-path="url(#SVGID_4_)" fill="#EDC226" points="-3.899,20.997 21,36.899 45.902,20.997 21,5.1 			"/>
			<g clip-path="url(#SVGID_4_)">
				<defs>
					<rect id="SVGID_5_" x="-15" width="72.001" height="42"/>
				</defs>
				<clipPath id="SVGID_6_">
					<use xlink:href="#SVGID_5_"  overflow="visible"/>
				</clipPath>
				<path clip-path="url(#SVGID_6_)" fill="#2D146E" d="M31.502,20.997c0,5.798-4.705,10.501-10.502,10.501
					c-5.796,0-10.498-4.703-10.498-10.501c0-5.793,4.702-10.498,10.498-10.498C26.797,10.499,31.502,15.204,31.502,20.997"/>
				<path clip-path="url(#SVGID_6_)" fill="#FFFFFF" d="M15.001,16.499c-1.225,0-2.429,0.089-3.607,0.254
					c-0.226,0.517-0.414,1.053-0.561,1.606c1.355-0.234,2.746-0.36,4.168-0.36c6.156,0,11.774,2.321,16.022,6.134
					c0.17-0.537,0.293-1.092,0.375-1.66C26.963,18.745,21.244,16.499,15.001,16.499"/>
				<path clip-path="url(#SVGID_6_)" fill-rule="evenodd" clip-rule="evenodd" fill="#3C9242" d="M12.043,17.93
					c0.248-0.03,0.421-0.275,0.388-0.552c-0.034-0.272-0.262-0.471-0.508-0.441c-0.247,0.029-0.419,0.278-0.386,0.552
					C11.572,17.763,11.797,17.96,12.043,17.93 M12.023,17.745c0.146-0.019,0.246-0.172,0.224-0.342
					c-0.021-0.175-0.155-0.3-0.301-0.281c-0.146,0.018-0.246,0.171-0.224,0.343C11.743,17.638,11.879,17.763,12.023,17.745"/>
				<path clip-path="url(#SVGID_6_)" fill-rule="evenodd" clip-rule="evenodd" fill="#3C9242" d="M12.86,17.84l0.185-0.014
					l-0.024-0.37l0.397-0.028c0.173-0.012,0.306-0.163,0.292-0.337c-0.011-0.171-0.162-0.303-0.335-0.291l-0.57,0.041L12.86,17.84z
					 M13.007,17.27l0.384-0.025c0.069-0.004,0.123-0.066,0.117-0.138c-0.005-0.071-0.063-0.125-0.134-0.118l-0.386,0.025
					L13.007,17.27z"/>
				<path clip-path="url(#SVGID_6_)" fill="#3C9242" d="M13.707,17.781c-0.008-0.144-0.032-0.459-0.243-0.441l-0.271,0.019
					c0.312-0.021,0.335,0.291,0.345,0.434"/>
				<path clip-path="url(#SVGID_6_)" fill-rule="evenodd" clip-rule="evenodd" fill="#3C9242" d="M14.127,17.761l0.472-0.01
					c0.236-0.003,0.425-0.197,0.422-0.436l-0.004-0.143c-0.004-0.236-0.198-0.426-0.437-0.422l-0.47,0.009L14.127,17.761z
					 M14.31,17.573l0.271-0.007c0.151-0.004,0.271-0.127,0.265-0.276v-0.086c-0.002-0.149-0.125-0.268-0.275-0.265l-0.271,0.004
					L14.31,17.573z"/>
				<polygon clip-path="url(#SVGID_6_)" fill="#3C9242" points="15.397,17.747 16.297,17.779 16.303,17.593 15.576,17.568 
					15.583,17.311 16.156,17.331 16.164,17.159 15.591,17.14 15.596,16.941 16.285,16.965 16.289,16.777 15.432,16.747 				"/>
				<polygon clip-path="url(#SVGID_6_)" fill="#3C9242" points="16.667,17.804 16.838,17.816 16.896,17.134 17.036,17.834 
					17.193,17.85 17.452,17.183 17.392,17.865 17.562,17.881 17.647,16.885 17.4,16.862 17.14,17.529 17.002,16.828 16.752,16.806 
									"/>
				<polygon clip-path="url(#SVGID_6_)" fill="#3C9242" points="18.738,18.035 19.476,18.162 19.508,17.994 18.936,17.896 
					18.975,17.67 19.439,17.751 19.467,17.58 19.004,17.501 19.029,17.347 19.581,17.443 19.613,17.272 18.889,17.146 				"/>
				<path clip-path="url(#SVGID_6_)" fill-rule="evenodd" clip-rule="evenodd" fill="#3C9242" d="M20.636,18.408l0.181,0.046
					l0.093-0.358l0.387,0.1c0.169,0.044,0.341-0.058,0.386-0.225c0.041-0.167-0.06-0.34-0.228-0.384l-0.552-0.144L20.636,18.408z
					 M20.955,17.915l0.377,0.098c0.065,0.016,0.138-0.024,0.154-0.094c0.019-0.069-0.022-0.138-0.091-0.156l-0.375-0.097
					L20.955,17.915z"/>
				<path clip-path="url(#SVGID_6_)" fill-rule="evenodd" clip-rule="evenodd" fill="#3C9242" d="M21.865,18.734l0.174,0.058
					l0.113-0.354l0.379,0.119c0.166,0.052,0.344-0.038,0.398-0.205c0.049-0.165-0.039-0.341-0.205-0.393l-0.549-0.174L21.865,18.734
					z M22.209,18.26l0.365,0.117c0.07,0.021,0.143-0.016,0.162-0.084c0.021-0.069-0.014-0.14-0.082-0.162l-0.369-0.116L22.209,18.26
					z"/>
				<path clip-path="url(#SVGID_6_)" fill="#3C9242" d="M22.676,18.991c0.043-0.136,0.137-0.435-0.066-0.501l-0.262-0.08
					c0.303,0.094,0.205,0.393,0.162,0.529"/>
				<path clip-path="url(#SVGID_6_)" fill-rule="evenodd" clip-rule="evenodd" fill="#3C9242" d="M23.492,19.284
					c0.234,0.088,0.502-0.053,0.598-0.31c0.096-0.259-0.014-0.54-0.246-0.627c-0.234-0.088-0.5,0.053-0.596,0.311
					C23.148,18.917,23.262,19.197,23.492,19.284 M23.557,19.11c0.137,0.052,0.299-0.04,0.359-0.202s0-0.334-0.137-0.387
					c-0.139-0.051-0.299,0.039-0.357,0.203C23.359,18.887,23.424,19.062,23.557,19.11"/>
				<path clip-path="url(#SVGID_6_)" fill-rule="evenodd" clip-rule="evenodd" fill="#3C9242" d="M24.67,19.761
					c0.23,0.1,0.504-0.027,0.611-0.281c0.113-0.252,0.018-0.536-0.211-0.637c-0.23-0.098-0.504,0.025-0.613,0.279
					C24.348,19.375,24.443,19.661,24.67,19.761 M24.744,19.59c0.135,0.06,0.299-0.023,0.367-0.183
					c0.072-0.158,0.018-0.337-0.117-0.394c-0.131-0.058-0.297,0.023-0.369,0.183C24.559,19.354,24.611,19.53,24.744,19.59"/>
				
					<rect x="24.893" y="19.399" transform="matrix(-0.9179 -0.3967 0.3967 -0.9179 40.3791 47.294)" clip-path="url(#SVGID_6_)" fill="#3C9242" width="0.377" height="0.143"/>
				
					<rect x="25.048" y="19.431" transform="matrix(-0.9181 -0.3964 0.3964 -0.9181 40.3757 47.7084)" clip-path="url(#SVGID_6_)" fill="#3C9242" width="0.14" height="0.5"/>
				<path clip-path="url(#SVGID_6_)" fill-rule="evenodd" clip-rule="evenodd" fill="#3C9242" d="M25.418,20.096l0.166,0.082
					l0.168-0.331l0.355,0.177c0.156,0.081,0.344,0.017,0.424-0.139c0.074-0.156,0.014-0.344-0.145-0.424l-0.508-0.253L25.418,20.096
					z M25.834,19.681l0.344,0.172c0.064,0.032,0.141,0.006,0.172-0.058c0.033-0.064,0.008-0.141-0.055-0.173l-0.348-0.173
					L25.834,19.681z"/>
				<path clip-path="url(#SVGID_6_)" fill="#3C9242" d="M26.178,20.475c0.064-0.127,0.205-0.407,0.014-0.504l-0.244-0.122
					c0.281,0.14,0.143,0.423,0.078,0.549"/>
				<polygon clip-path="url(#SVGID_6_)" fill="#3C9242" points="26.549,20.672 27.332,21.115 27.424,20.952 26.791,20.592 
					26.916,20.372 27.412,20.652 27.5,20.503 27.002,20.223 27.1,20.047 27.697,20.385 27.789,20.223 27.043,19.802 				"/>
				<path clip-path="url(#SVGID_6_)" fill="#3C9242" d="M28.01,21.16c-0.053,0.085,0,0.18,0.121,0.255
					c0.119,0.077,0.203,0.073,0.236,0.021c0.111-0.172-0.521-0.422-0.328-0.722c0.168-0.256,0.455-0.058,0.562,0.012
					c0.111,0.069,0.285,0.248,0.148,0.453l-0.182-0.116c0.059-0.09-0.008-0.178-0.104-0.236c-0.092-0.063-0.17-0.088-0.225,0
					c-0.094,0.14,0.525,0.401,0.336,0.701c-0.139,0.22-0.385,0.123-0.547,0.021c-0.137-0.089-0.344-0.298-0.211-0.507L28.01,21.16z"
					/>
				<path clip-path="url(#SVGID_6_)" fill="#3C9242" d="M29.084,21.869c-0.061,0.082-0.01,0.178,0.105,0.261
					c0.115,0.084,0.197,0.085,0.234,0.032c0.121-0.163-0.498-0.447-0.289-0.735c0.184-0.25,0.459-0.035,0.566,0.04
					c0.102,0.075,0.266,0.262,0.123,0.461l-0.18-0.126c0.061-0.087,0.004-0.176-0.092-0.244c-0.09-0.064-0.16-0.094-0.221-0.01
					c-0.104,0.134,0.502,0.429,0.295,0.716c-0.148,0.214-0.389,0.105-0.543-0.005c-0.133-0.098-0.33-0.315-0.186-0.52L29.084,21.869
					z"/>
				<path clip-path="url(#SVGID_6_)" fill-rule="evenodd" clip-rule="evenodd" fill="#3C9242" d="M30.098,23.021
					c0.193,0.155,0.49,0.104,0.662-0.111c0.172-0.215,0.152-0.515-0.041-0.671c-0.193-0.154-0.49-0.105-0.664,0.11
					C29.885,22.566,29.902,22.867,30.098,23.021 M30.213,22.875c0.113,0.09,0.295,0.056,0.4-0.081
					c0.111-0.136,0.105-0.32-0.01-0.412c-0.115-0.091-0.293-0.054-0.402,0.082C30.092,22.601,30.098,22.783,30.213,22.875"/>
				<polygon clip-path="url(#SVGID_6_)" fill="#FFFFFF" points="12.431,18.664 12.29,19.091 12.503,19.16 				"/>
				<polygon clip-path="url(#SVGID_6_)" fill="#FFFFFF" points="12.431,18.664 12.567,19.091 12.355,19.16 				"/>
				<polygon clip-path="url(#SVGID_6_)" fill="#FFFFFF" points="12.856,18.975 12.407,18.975 12.407,19.197 				"/>
				<polygon clip-path="url(#SVGID_6_)" fill="#FFFFFF" points="12.856,18.975 12.495,19.238 12.36,19.058 				"/>
				<polygon clip-path="url(#SVGID_6_)" fill="#FFFFFF" points="12.002,18.975 12.366,19.238 12.497,19.058 				"/>
				<polygon clip-path="url(#SVGID_6_)" fill="#FFFFFF" points="12.002,18.975 12.454,18.975 12.454,19.197 				"/>
				<polygon clip-path="url(#SVGID_6_)" fill="#FFFFFF" points="12.692,19.478 12.554,19.049 12.339,19.12 				"/>
				<polygon clip-path="url(#SVGID_6_)" fill="#FFFFFF" points="12.692,19.478 12.331,19.213 12.46,19.03 				"/>
				<polygon clip-path="url(#SVGID_6_)" fill="#FFFFFF" points="12.167,19.478 12.53,19.213 12.396,19.03 				"/>
				<polygon clip-path="url(#SVGID_6_)" fill="#FFFFFF" points="12.167,19.478 12.302,19.049 12.519,19.12 				"/>
				<polygon clip-path="url(#SVGID_6_)" fill="#FFFFFF" points="13.356,23.078 13.219,23.504 13.432,23.574 				"/>
				<polygon clip-path="url(#SVGID_6_)" fill="#FFFFFF" points="13.356,23.078 13.496,23.504 13.283,23.574 				"/>
				<polygon clip-path="url(#SVGID_6_)" fill="#FFFFFF" points="13.787,23.389 13.335,23.389 13.335,23.613 				"/>
				<polygon clip-path="url(#SVGID_6_)" fill="#FFFFFF" points="13.787,23.389 13.419,23.652 13.291,23.472 				"/>
				<polygon clip-path="url(#SVGID_6_)" fill="#FFFFFF" points="12.929,23.389 13.294,23.652 13.426,23.472 				"/>
				<polygon clip-path="url(#SVGID_6_)" fill="#FFFFFF" points="12.929,23.389 13.38,23.389 13.38,23.613 				"/>
				<polygon clip-path="url(#SVGID_6_)" fill="#FFFFFF" points="13.623,23.891 13.484,23.465 13.268,23.533 				"/>
				<polygon clip-path="url(#SVGID_6_)" fill="#FFFFFF" points="13.623,23.891 13.258,23.627 13.391,23.446 				"/>
				<polygon clip-path="url(#SVGID_6_)" fill="#FFFFFF" points="13.093,23.891 13.458,23.627 13.324,23.446 				"/>
				<polygon clip-path="url(#SVGID_6_)" fill="#FFFFFF" points="13.093,23.891 13.233,23.465 13.447,23.533 				"/>
				<polygon clip-path="url(#SVGID_6_)" fill="#FFFFFF" points="12.073,24.17 11.98,24.455 12.122,24.501 				"/>
				<polygon clip-path="url(#SVGID_6_)" fill="#FFFFFF" points="12.073,24.17 12.167,24.455 12.023,24.501 				"/>
				<polygon clip-path="url(#SVGID_6_)" fill="#FFFFFF" points="12.356,24.377 12.058,24.377 12.058,24.527 				"/>
				<polygon clip-path="url(#SVGID_6_)" fill="#FFFFFF" points="12.356,24.377 12.114,24.554 12.027,24.432 				"/>
				<polygon clip-path="url(#SVGID_6_)" fill="#FFFFFF" points="11.786,24.377 12.028,24.554 12.116,24.432 				"/>
				<polygon clip-path="url(#SVGID_6_)" fill="#FFFFFF" points="11.786,24.377 12.086,24.377 12.086,24.527 				"/>
				<polygon clip-path="url(#SVGID_6_)" fill="#FFFFFF" points="12.249,24.713 12.155,24.428 12.013,24.473 				"/>
				<polygon clip-path="url(#SVGID_6_)" fill="#FFFFFF" points="12.249,24.713 12.004,24.535 12.093,24.414 				"/>
				<polygon clip-path="url(#SVGID_6_)" fill="#FFFFFF" points="11.896,24.713 12.138,24.535 12.05,24.414 				"/>
				<polygon clip-path="url(#SVGID_6_)" fill="#FFFFFF" points="11.896,24.713 11.989,24.428 12.13,24.473 				"/>
				<polygon clip-path="url(#SVGID_6_)" fill="#FFFFFF" points="14.384,22.669 14.322,22.873 14.422,22.907 				"/>
				<polygon clip-path="url(#SVGID_6_)" fill="#FFFFFF" points="14.384,22.669 14.452,22.873 14.349,22.907 				"/>
				<polygon clip-path="url(#SVGID_6_)" fill="#FFFFFF" points="14.591,22.819 14.375,22.819 14.375,22.925 				"/>
				<polygon clip-path="url(#SVGID_6_)" fill="#FFFFFF" points="14.591,22.819 14.417,22.945 14.353,22.858 				"/>
				<polygon clip-path="url(#SVGID_6_)" fill="#FFFFFF" points="14.183,22.819 14.355,22.945 14.42,22.858 				"/>
				<polygon clip-path="url(#SVGID_6_)" fill="#FFFFFF" points="14.183,22.819 14.394,22.819 14.394,22.925 				"/>
				<polygon clip-path="url(#SVGID_6_)" fill="#FFFFFF" points="14.513,23.058 14.445,22.853 14.345,22.887 				"/>
				<polygon clip-path="url(#SVGID_6_)" fill="#FFFFFF" points="14.513,23.058 14.34,22.932 14.402,22.847 				"/>
				<polygon clip-path="url(#SVGID_6_)" fill="#FFFFFF" points="14.26,23.058 14.433,22.932 14.37,22.847 				"/>
				<polygon clip-path="url(#SVGID_6_)" fill="#FFFFFF" points="14.26,23.058 14.327,22.853 14.429,22.887 				"/>
				<polygon clip-path="url(#SVGID_6_)" fill="#FFFFFF" points="15.542,24.194 15.429,24.551 15.604,24.611 				"/>
				<polygon clip-path="url(#SVGID_6_)" fill="#FFFFFF" points="15.542,24.194 15.66,24.551 15.481,24.611 				"/>
				<polygon clip-path="url(#SVGID_6_)" fill="#FFFFFF" points="15.899,24.453 15.524,24.453 15.524,24.641 				"/>
				<polygon clip-path="url(#SVGID_6_)" fill="#FFFFFF" points="15.899,24.453 15.596,24.676 15.489,24.522 				"/>
				<polygon clip-path="url(#SVGID_6_)" fill="#FFFFFF" points="15.185,24.453 15.489,24.676 15.6,24.522 				"/>
				<polygon clip-path="url(#SVGID_6_)" fill="#FFFFFF" points="15.185,24.453 15.561,24.453 15.561,24.641 				"/>
				<polygon clip-path="url(#SVGID_6_)" fill="#FFFFFF" points="15.764,24.873 15.649,24.518 15.468,24.575 				"/>
				<polygon clip-path="url(#SVGID_6_)" fill="#FFFFFF" points="15.764,24.873 15.46,24.652 15.571,24.501 				"/>
				<polygon clip-path="url(#SVGID_6_)" fill="#FFFFFF" points="15.325,24.873 15.625,24.652 15.516,24.501 				"/>
				<polygon clip-path="url(#SVGID_6_)" fill="#FFFFFF" points="15.325,24.873 15.44,24.518 15.617,24.575 				"/>
				<polygon clip-path="url(#SVGID_6_)" fill="#FFFFFF" points="15.229,25.237 15.114,25.594 15.292,25.654 				"/>
				<polygon clip-path="url(#SVGID_6_)" fill="#FFFFFF" points="15.229,25.237 15.345,25.594 15.166,25.654 				"/>
				<polygon clip-path="url(#SVGID_6_)" fill="#FFFFFF" points="15.585,25.496 15.21,25.496 15.21,25.684 				"/>
				<polygon clip-path="url(#SVGID_6_)" fill="#FFFFFF" points="15.585,25.496 15.282,25.719 15.171,25.565 				"/>
				<polygon clip-path="url(#SVGID_6_)" fill="#FFFFFF" points="14.874,25.496 15.177,25.719 15.286,25.565 				"/>
				<polygon clip-path="url(#SVGID_6_)" fill="#FFFFFF" points="14.874,25.496 15.248,25.496 15.248,25.684 				"/>
				<polygon clip-path="url(#SVGID_6_)" fill="#FFFFFF" points="15.448,25.918 15.333,25.56 15.157,25.617 				"/>
				<polygon clip-path="url(#SVGID_6_)" fill="#FFFFFF" points="15.448,25.918 15.145,25.695 15.255,25.545 				"/>
				<polygon clip-path="url(#SVGID_6_)" fill="#FFFFFF" points="15.007,25.918 15.313,25.695 15.202,25.545 				"/>
				<polygon clip-path="url(#SVGID_6_)" fill="#FFFFFF" points="15.007,25.918 15.125,25.56 15.304,25.617 				"/>
				<polygon clip-path="url(#SVGID_6_)" fill="#FFFFFF" points="24.258,17.29 24.119,17.721 24.332,17.789 				"/>
				<polygon clip-path="url(#SVGID_6_)" fill="#FFFFFF" points="24.258,17.29 24.398,17.721 24.184,17.789 				"/>
				<polygon clip-path="url(#SVGID_6_)" fill="#FFFFFF" points="24.686,17.602 24.236,17.602 24.236,17.829 				"/>
				<polygon clip-path="url(#SVGID_6_)" fill="#FFFFFF" points="24.686,17.602 24.32,17.867 24.189,17.685 				"/>
				<polygon clip-path="url(#SVGID_6_)" fill="#FFFFFF" points="23.83,17.602 24.193,17.867 24.328,17.685 				"/>
				<polygon clip-path="url(#SVGID_6_)" fill="#FFFFFF" points="23.83,17.602 24.281,17.602 24.281,17.829 				"/>
				<polygon clip-path="url(#SVGID_6_)" fill="#FFFFFF" points="24.521,18.105 24.383,17.679 24.168,17.747 				"/>
				<polygon clip-path="url(#SVGID_6_)" fill="#FFFFFF" points="24.521,18.105 24.16,17.842 24.291,17.659 				"/>
				<polygon clip-path="url(#SVGID_6_)" fill="#FFFFFF" points="23.994,18.105 24.357,17.842 24.225,17.659 				"/>
				<polygon clip-path="url(#SVGID_6_)" fill="#FFFFFF" points="23.994,18.105 24.131,17.679 24.348,17.747 				"/>
				<polygon clip-path="url(#SVGID_6_)" fill="#FFFFFF" points="28.355,24.234 28.219,24.663 28.434,24.732 				"/>
				<polygon clip-path="url(#SVGID_6_)" fill="#FFFFFF" points="28.355,24.234 28.498,24.663 28.283,24.732 				"/>
				<polygon clip-path="url(#SVGID_6_)" fill="#FFFFFF" points="28.785,24.545 28.336,24.545 28.336,24.77 				"/>
				<polygon clip-path="url(#SVGID_6_)" fill="#FFFFFF" points="28.785,24.545 28.422,24.811 28.289,24.627 				"/>
				<polygon clip-path="url(#SVGID_6_)" fill="#FFFFFF" points="27.93,24.545 28.295,24.811 28.428,24.627 				"/>
				<polygon clip-path="url(#SVGID_6_)" fill="#FFFFFF" points="27.93,24.545 28.379,24.545 28.379,24.77 				"/>
				<polygon clip-path="url(#SVGID_6_)" fill="#FFFFFF" points="28.623,25.049 28.482,24.621 28.27,24.688 				"/>
				<polygon clip-path="url(#SVGID_6_)" fill="#FFFFFF" points="28.623,25.049 28.258,24.783 28.393,24.601 				"/>
				<polygon clip-path="url(#SVGID_6_)" fill="#FFFFFF" points="28.094,25.049 28.459,24.783 28.324,24.601 				"/>
				<polygon clip-path="url(#SVGID_6_)" fill="#FFFFFF" points="28.094,25.049 28.23,24.621 28.445,24.688 				"/>
				<polygon clip-path="url(#SVGID_6_)" fill="#FFFFFF" points="29.814,24.484 29.721,24.77 29.865,24.815 				"/>
				<polygon clip-path="url(#SVGID_6_)" fill="#FFFFFF" points="29.814,24.484 29.908,24.77 29.764,24.815 				"/>
				<polygon clip-path="url(#SVGID_6_)" fill="#FFFFFF" points="30.1,24.692 29.799,24.692 29.799,24.84 				"/>
				<polygon clip-path="url(#SVGID_6_)" fill="#FFFFFF" points="30.1,24.692 29.857,24.867 29.771,24.747 				"/>
				<polygon clip-path="url(#SVGID_6_)" fill="#FFFFFF" points="29.529,24.692 29.773,24.867 29.863,24.747 				"/>
				<polygon clip-path="url(#SVGID_6_)" fill="#FFFFFF" points="29.529,24.692 29.828,24.692 29.828,24.84 				"/>
				<polygon clip-path="url(#SVGID_6_)" fill="#FFFFFF" points="29.992,25.026 29.898,24.74 29.756,24.787 				"/>
				<polygon clip-path="url(#SVGID_6_)" fill="#FFFFFF" points="29.992,25.026 29.748,24.851 29.836,24.729 				"/>
				<polygon clip-path="url(#SVGID_6_)" fill="#FFFFFF" points="29.639,25.026 29.881,24.851 29.791,24.729 				"/>
				<polygon clip-path="url(#SVGID_6_)" fill="#FFFFFF" points="29.639,25.026 29.73,24.74 29.873,24.787 				"/>
				<polygon clip-path="url(#SVGID_6_)" fill="#FFFFFF" points="28.785,25.237 28.67,25.594 28.848,25.654 				"/>
				<polygon clip-path="url(#SVGID_6_)" fill="#FFFFFF" points="28.785,25.237 28.9,25.594 28.725,25.654 				"/>
				<polygon clip-path="url(#SVGID_6_)" fill="#FFFFFF" points="29.143,25.496 28.768,25.496 28.768,25.684 				"/>
				<polygon clip-path="url(#SVGID_6_)" fill="#FFFFFF" points="29.143,25.496 28.84,25.719 28.729,25.565 				"/>
				<polygon clip-path="url(#SVGID_6_)" fill="#FFFFFF" points="28.43,25.496 28.732,25.719 28.844,25.565 				"/>
				<polygon clip-path="url(#SVGID_6_)" fill="#FFFFFF" points="28.43,25.496 28.805,25.496 28.805,25.684 				"/>
				<polygon clip-path="url(#SVGID_6_)" fill="#FFFFFF" points="29.008,25.918 28.891,25.56 28.713,25.617 				"/>
				<polygon clip-path="url(#SVGID_6_)" fill="#FFFFFF" points="29.008,25.918 28.705,25.695 28.812,25.545 				"/>
				<polygon clip-path="url(#SVGID_6_)" fill="#FFFFFF" points="28.566,25.918 28.869,25.695 28.76,25.545 				"/>
				<polygon clip-path="url(#SVGID_6_)" fill="#FFFFFF" points="28.566,25.918 28.68,25.56 28.859,25.617 				"/>
				<polygon clip-path="url(#SVGID_6_)" fill="#FFFFFF" points="26.258,27.437 26.141,27.795 26.318,27.854 				"/>
				<polygon clip-path="url(#SVGID_6_)" fill="#FFFFFF" points="26.258,27.437 26.375,27.795 26.195,27.854 				"/>
				<polygon clip-path="url(#SVGID_6_)" fill="#FFFFFF" points="26.613,27.697 26.24,27.697 26.24,27.885 				"/>
				<polygon clip-path="url(#SVGID_6_)" fill="#FFFFFF" points="26.613,27.697 26.312,27.918 26.201,27.765 				"/>
				<polygon clip-path="url(#SVGID_6_)" fill="#FFFFFF" points="25.9,27.697 26.205,27.918 26.314,27.765 				"/>
				<polygon clip-path="url(#SVGID_6_)" fill="#FFFFFF" points="25.9,27.697 26.275,27.697 26.275,27.885 				"/>
				<polygon clip-path="url(#SVGID_6_)" fill="#FFFFFF" points="26.479,28.115 26.363,27.76 26.184,27.816 				"/>
				<polygon clip-path="url(#SVGID_6_)" fill="#FFFFFF" points="26.479,28.115 26.174,27.895 26.285,27.744 				"/>
				<polygon clip-path="url(#SVGID_6_)" fill="#FFFFFF" points="26.037,28.115 26.342,27.895 26.23,27.744 				"/>
				<polygon clip-path="url(#SVGID_6_)" fill="#FFFFFF" points="26.037,28.115 26.152,27.76 26.332,27.816 				"/>
				<polygon clip-path="url(#SVGID_6_)" fill="#FFFFFF" points="26.244,28.57 26.152,28.855 26.295,28.902 				"/>
				<polygon clip-path="url(#SVGID_6_)" fill="#FFFFFF" points="26.244,28.57 26.338,28.855 26.193,28.902 				"/>
				<polygon clip-path="url(#SVGID_6_)" fill="#FFFFFF" points="26.529,28.777 26.229,28.777 26.229,28.928 				"/>
				<polygon clip-path="url(#SVGID_6_)" fill="#FFFFFF" points="26.529,28.777 26.285,28.953 26.197,28.831 				"/>
				<polygon clip-path="url(#SVGID_6_)" fill="#FFFFFF" points="25.959,28.777 26.201,28.953 26.289,28.831 				"/>
				<polygon clip-path="url(#SVGID_6_)" fill="#FFFFFF" points="25.959,28.777 26.258,28.777 26.258,28.928 				"/>
				<polygon clip-path="url(#SVGID_6_)" fill="#FFFFFF" points="26.42,29.112 26.328,28.828 26.184,28.875 				"/>
				<polygon clip-path="url(#SVGID_6_)" fill="#FFFFFF" points="26.42,29.112 26.178,28.938 26.264,28.815 				"/>
				<polygon clip-path="url(#SVGID_6_)" fill="#FFFFFF" points="26.066,29.112 26.309,28.938 26.223,28.815 				"/>
				<polygon clip-path="url(#SVGID_6_)" fill="#FFFFFF" points="26.066,29.112 26.16,28.828 26.305,28.875 				"/>
				<polygon clip-path="url(#SVGID_6_)" fill="#FFFFFF" points="27.301,26.686 27.207,26.971 27.352,27.016 				"/>
				<polygon clip-path="url(#SVGID_6_)" fill="#FFFFFF" points="27.301,26.686 27.393,26.971 27.248,27.016 				"/>
				<polygon clip-path="url(#SVGID_6_)" fill="#FFFFFF" points="27.586,26.891 27.285,26.891 27.285,27.041 				"/>
				<polygon clip-path="url(#SVGID_6_)" fill="#FFFFFF" points="27.586,26.891 27.342,27.068 27.254,26.947 				"/>
				<polygon clip-path="url(#SVGID_6_)" fill="#FFFFFF" points="27.014,26.891 27.26,27.068 27.348,26.947 				"/>
				<polygon clip-path="url(#SVGID_6_)" fill="#FFFFFF" points="27.014,26.891 27.316,26.891 27.316,27.041 				"/>
				<polygon clip-path="url(#SVGID_6_)" fill="#FFFFFF" points="27.477,27.229 27.383,26.943 27.244,26.99 				"/>
				<polygon clip-path="url(#SVGID_6_)" fill="#FFFFFF" points="27.477,27.229 27.236,27.051 27.324,26.931 				"/>
				<polygon clip-path="url(#SVGID_6_)" fill="#FFFFFF" points="27.125,27.229 27.367,27.051 27.279,26.931 				"/>
				<polygon clip-path="url(#SVGID_6_)" fill="#FFFFFF" points="27.125,27.229 27.219,26.943 27.359,26.99 				"/>
				<polygon clip-path="url(#SVGID_6_)" fill="#FFFFFF" points="28.143,26.081 28.027,26.438 28.205,26.496 				"/>
				<polygon clip-path="url(#SVGID_6_)" fill="#FFFFFF" points="28.143,26.081 28.26,26.438 28.08,26.496 				"/>
				<polygon clip-path="url(#SVGID_6_)" fill="#FFFFFF" points="28.5,26.34 28.123,26.34 28.123,26.527 				"/>
				<polygon clip-path="url(#SVGID_6_)" fill="#FFFFFF" points="28.5,26.34 28.195,26.56 28.088,26.409 				"/>
				<polygon clip-path="url(#SVGID_6_)" fill="#FFFFFF" points="27.785,26.34 28.09,26.56 28.199,26.409 				"/>
				<polygon clip-path="url(#SVGID_6_)" fill="#FFFFFF" points="27.785,26.34 28.162,26.34 28.162,26.527 				"/>
				<polygon clip-path="url(#SVGID_6_)" fill="#FFFFFF" points="28.363,26.758 28.248,26.403 28.068,26.461 				"/>
				<polygon clip-path="url(#SVGID_6_)" fill="#FFFFFF" points="28.363,26.758 28.062,26.539 28.172,26.388 				"/>
				<polygon clip-path="url(#SVGID_6_)" fill="#FFFFFF" points="27.924,26.758 28.227,26.539 28.115,26.388 				"/>
				<polygon clip-path="url(#SVGID_6_)" fill="#FFFFFF" points="27.924,26.758 28.039,26.403 28.217,26.461 				"/>
				<polygon clip-path="url(#SVGID_6_)" fill="#FFFFFF" points="26.215,26.486 26.123,26.77 26.264,26.817 				"/>
				<polygon clip-path="url(#SVGID_6_)" fill="#FFFFFF" points="26.215,26.486 26.305,26.77 26.166,26.817 				"/>
				<polygon clip-path="url(#SVGID_6_)" fill="#FFFFFF" points="26.502,26.692 26.201,26.692 26.201,26.842 				"/>
				<polygon clip-path="url(#SVGID_6_)" fill="#FFFFFF" points="26.502,26.692 26.258,26.867 26.172,26.746 				"/>
				<polygon clip-path="url(#SVGID_6_)" fill="#FFFFFF" points="25.93,26.692 26.174,26.867 26.26,26.746 				"/>
				<polygon clip-path="url(#SVGID_6_)" fill="#FFFFFF" points="25.93,26.692 26.229,26.692 26.229,26.842 				"/>
				<polygon clip-path="url(#SVGID_6_)" fill="#FFFFFF" points="26.391,27.028 26.299,26.742 26.154,26.786 				"/>
				<polygon clip-path="url(#SVGID_6_)" fill="#FFFFFF" points="26.391,27.028 26.148,26.852 26.236,26.73 				"/>
				<polygon clip-path="url(#SVGID_6_)" fill="#FFFFFF" points="26.039,27.028 26.281,26.852 26.193,26.73 				"/>
				<polygon clip-path="url(#SVGID_6_)" fill="#FFFFFF" points="26.039,27.028 26.131,26.742 26.275,26.786 				"/>
				<polygon clip-path="url(#SVGID_6_)" fill="#FFFFFF" points="17,21.054 16.883,21.408 17.064,21.467 				"/>
				<polygon clip-path="url(#SVGID_6_)" fill="#FFFFFF" points="17,21.054 17.116,21.408 16.937,21.467 				"/>
				<polygon clip-path="url(#SVGID_6_)" fill="#FFFFFF" points="17.357,21.311 16.982,21.311 16.982,21.499 				"/>
				<polygon clip-path="url(#SVGID_6_)" fill="#FFFFFF" points="17.357,21.311 17.054,21.532 16.945,21.38 				"/>
				<polygon clip-path="url(#SVGID_6_)" fill="#FFFFFF" points="16.644,21.311 16.947,21.532 17.056,21.38 				"/>
				<polygon clip-path="url(#SVGID_6_)" fill="#FFFFFF" points="16.644,21.311 17.019,21.311 17.019,21.499 				"/>
				<polygon clip-path="url(#SVGID_6_)" fill="#FFFFFF" points="17.22,21.73 17.105,21.375 16.926,21.433 				"/>
				<polygon clip-path="url(#SVGID_6_)" fill="#FFFFFF" points="17.22,21.73 16.918,21.511 17.029,21.358 				"/>
				<polygon clip-path="url(#SVGID_6_)" fill="#FFFFFF" points="16.781,21.73 17.084,21.511 16.972,21.358 				"/>
				<polygon clip-path="url(#SVGID_6_)" fill="#FFFFFF" points="16.781,21.73 16.896,21.375 17.075,21.433 				"/>
				<polygon clip-path="url(#SVGID_6_)" fill="#FFFFFF" points="23.857,20.172 23.764,20.455 23.908,20.503 				"/>
				<polygon clip-path="url(#SVGID_6_)" fill="#FFFFFF" points="23.857,20.172 23.951,20.455 23.807,20.503 				"/>
				<polygon clip-path="url(#SVGID_6_)" fill="#FFFFFF" points="24.143,20.377 23.844,20.377 23.844,20.527 				"/>
				<polygon clip-path="url(#SVGID_6_)" fill="#FFFFFF" points="24.143,20.377 23.9,20.556 23.814,20.434 				"/>
				<polygon clip-path="url(#SVGID_6_)" fill="#FFFFFF" points="23.574,20.377 23.814,20.556 23.904,20.434 				"/>
				<polygon clip-path="url(#SVGID_6_)" fill="#FFFFFF" points="23.574,20.377 23.873,20.377 23.873,20.527 				"/>
				<polygon clip-path="url(#SVGID_6_)" fill="#FFFFFF" points="24.035,20.714 23.941,20.429 23.799,20.475 				"/>
				<polygon clip-path="url(#SVGID_6_)" fill="#FFFFFF" points="24.035,20.714 23.793,20.536 23.881,20.414 				"/>
				<polygon clip-path="url(#SVGID_6_)" fill="#FFFFFF" points="23.68,20.714 23.924,20.536 23.836,20.414 				"/>
				<polygon clip-path="url(#SVGID_6_)" fill="#FFFFFF" points="23.68,20.714 23.773,20.429 23.918,20.475 				"/>
				<polygon clip-path="url(#SVGID_6_)" fill="#FFFFFF" points="21,25.262 20.862,25.691 21.076,25.76 				"/>
				<polygon clip-path="url(#SVGID_6_)" fill="#FFFFFF" points="21,25.262 21.139,25.691 20.925,25.76 				"/>
				<polygon clip-path="url(#SVGID_6_)" fill="#FFFFFF" points="21.428,25.572 20.979,25.572 20.979,25.8 				"/>
				<polygon clip-path="url(#SVGID_6_)" fill="#FFFFFF" points="21.428,25.572 21.067,25.838 20.932,25.655 				"/>
				<polygon clip-path="url(#SVGID_6_)" fill="#FFFFFF" points="20.575,25.572 20.936,25.838 21.069,25.655 				"/>
				<polygon clip-path="url(#SVGID_6_)" fill="#FFFFFF" points="20.575,25.572 21.024,25.572 21.024,25.8 				"/>
				<polygon clip-path="url(#SVGID_6_)" fill="#FFFFFF" points="21.264,26.076 21.126,25.649 20.912,25.719 				"/>
				<polygon clip-path="url(#SVGID_6_)" fill="#FFFFFF" points="21.264,26.076 20.903,25.812 21.033,25.63 				"/>
				<polygon clip-path="url(#SVGID_6_)" fill="#FFFFFF" points="20.737,26.076 21.098,25.812 20.968,25.63 				"/>
				<polygon clip-path="url(#SVGID_6_)" fill="#FFFFFF" points="20.737,26.076 20.875,25.649 21.089,25.719 				"/>
				<polygon clip-path="url(#SVGID_6_)" fill="#FFFFFF" points="22.215,23.253 22.1,23.609 22.277,23.668 				"/>
				<polygon clip-path="url(#SVGID_6_)" fill="#FFFFFF" points="22.215,23.253 22.33,23.609 22.152,23.668 				"/>
				<polygon clip-path="url(#SVGID_6_)" fill="#FFFFFF" points="22.572,23.512 22.197,23.512 22.197,23.699 				"/>
				<polygon clip-path="url(#SVGID_6_)" fill="#FFFFFF" points="22.572,23.512 22.268,23.731 22.158,23.58 				"/>
				<polygon clip-path="url(#SVGID_6_)" fill="#FFFFFF" points="21.857,23.512 22.162,23.731 22.273,23.58 				"/>
				<polygon clip-path="url(#SVGID_6_)" fill="#FFFFFF" points="21.857,23.512 22.234,23.512 22.234,23.699 				"/>
				<polygon clip-path="url(#SVGID_6_)" fill="#FFFFFF" points="22.436,23.931 22.32,23.574 22.143,23.633 				"/>
				<polygon clip-path="url(#SVGID_6_)" fill="#FFFFFF" points="22.436,23.931 22.133,23.71 22.24,23.558 				"/>
				<polygon clip-path="url(#SVGID_6_)" fill="#FFFFFF" points="21.994,23.931 22.297,23.71 22.189,23.558 				"/>
				<polygon clip-path="url(#SVGID_6_)" fill="#FFFFFF" points="21.994,23.931 22.113,23.574 22.287,23.633 				"/>
				<polygon clip-path="url(#SVGID_6_)" fill="#FFFFFF" points="21,22.311 20.884,22.666 21.063,22.725 				"/>
				<polygon clip-path="url(#SVGID_6_)" fill="#FFFFFF" points="21,22.311 21.117,22.666 20.938,22.725 				"/>
				<polygon clip-path="url(#SVGID_6_)" fill="#FFFFFF" points="21.356,22.568 20.983,22.568 20.983,22.757 				"/>
				<polygon clip-path="url(#SVGID_6_)" fill="#FFFFFF" points="21.356,22.568 21.053,22.788 20.944,22.638 				"/>
				<polygon clip-path="url(#SVGID_6_)" fill="#FFFFFF" points="20.645,22.568 20.947,22.788 21.057,22.638 				"/>
				<polygon clip-path="url(#SVGID_6_)" fill="#FFFFFF" points="20.645,22.568 21.018,22.568 21.018,22.757 				"/>
				<polygon clip-path="url(#SVGID_6_)" fill="#FFFFFF" points="21.219,22.988 21.106,22.632 20.927,22.688 				"/>
				<polygon clip-path="url(#SVGID_6_)" fill="#FFFFFF" points="21.219,22.988 20.917,22.769 21.028,22.616 				"/>
				<polygon clip-path="url(#SVGID_6_)" fill="#FFFFFF" points="20.78,22.988 21.083,22.769 20.973,22.616 				"/>
				<polygon clip-path="url(#SVGID_6_)" fill="#FFFFFF" points="20.78,22.988 20.895,22.632 21.076,22.688 				"/>
				<polygon clip-path="url(#SVGID_6_)" fill="#FFFFFF" points="19.944,23.327 19.851,23.613 19.993,23.658 				"/>
				<polygon clip-path="url(#SVGID_6_)" fill="#FFFFFF" points="19.944,23.327 20.036,23.613 19.892,23.658 				"/>
				<polygon clip-path="url(#SVGID_6_)" fill="#FFFFFF" points="20.23,23.533 19.929,23.533 19.929,23.684 				"/>
				<polygon clip-path="url(#SVGID_6_)" fill="#FFFFFF" points="20.23,23.533 19.985,23.711 19.898,23.59 				"/>
				<polygon clip-path="url(#SVGID_6_)" fill="#FFFFFF" points="19.657,23.533 19.902,23.711 19.989,23.59 				"/>
				<polygon clip-path="url(#SVGID_6_)" fill="#FFFFFF" points="19.657,23.533 19.959,23.533 19.959,23.684 				"/>
				<polygon clip-path="url(#SVGID_6_)" fill="#FFFFFF" points="20.12,23.869 20.03,23.585 19.884,23.63 				"/>
				<polygon clip-path="url(#SVGID_6_)" fill="#FFFFFF" points="20.12,23.869 19.877,23.694 19.964,23.572 				"/>
				<polygon clip-path="url(#SVGID_6_)" fill="#FFFFFF" points="19.767,23.869 20.009,23.694 19.921,23.572 				"/>
				<polygon clip-path="url(#SVGID_6_)" fill="#FFFFFF" points="19.767,23.869 19.861,23.585 20.002,23.63 				"/>
				<polygon clip-path="url(#SVGID_6_)" fill="#FFFFFF" points="20.472,24.141 20.407,24.345 20.509,24.377 				"/>
				<polygon clip-path="url(#SVGID_6_)" fill="#FFFFFF" points="20.472,24.141 20.539,24.345 20.436,24.377 				"/>
				<polygon clip-path="url(#SVGID_6_)" fill="#FFFFFF" points="20.677,24.289 20.46,24.289 20.46,24.396 				"/>
				<polygon clip-path="url(#SVGID_6_)" fill="#FFFFFF" points="20.677,24.289 20.501,24.416 20.44,24.33 				"/>
				<polygon clip-path="url(#SVGID_6_)" fill="#FFFFFF" points="20.269,24.289 20.44,24.416 20.503,24.33 				"/>
				<polygon clip-path="url(#SVGID_6_)" fill="#FFFFFF" points="20.269,24.289 20.481,24.289 20.481,24.396 				"/>
				<polygon clip-path="url(#SVGID_6_)" fill="#FFFFFF" points="20.597,24.529 20.53,24.324 20.431,24.359 				"/>
				<polygon clip-path="url(#SVGID_6_)" fill="#FFFFFF" points="20.597,24.529 20.423,24.403 20.489,24.316 				"/>
				<polygon clip-path="url(#SVGID_6_)" fill="#FFFFFF" points="20.347,24.529 20.52,24.403 20.455,24.316 				"/>
				<polygon clip-path="url(#SVGID_6_)" fill="#FFFFFF" points="20.347,24.529 20.411,24.324 20.513,24.359 				"/>
				<polygon clip-path="url(#SVGID_6_)" fill="#FFFFFF" points="24.143,27.694 24.027,28.052 24.207,28.109 				"/>
				<polygon clip-path="url(#SVGID_6_)" fill="#FFFFFF" points="24.143,27.694 24.26,28.052 24.082,28.109 				"/>
				<polygon clip-path="url(#SVGID_6_)" fill="#FFFFFF" points="24.5,27.953 24.125,27.953 24.125,28.142 				"/>
				<polygon clip-path="url(#SVGID_6_)" fill="#FFFFFF" points="24.5,27.953 24.197,28.174 24.086,28.022 				"/>
				<polygon clip-path="url(#SVGID_6_)" fill="#FFFFFF" points="23.787,27.953 24.09,28.174 24.201,28.022 				"/>
				<polygon clip-path="url(#SVGID_6_)" fill="#FFFFFF" points="23.787,27.953 24.164,27.953 24.164,28.142 				"/>
				<polygon clip-path="url(#SVGID_6_)" fill="#FFFFFF" points="24.365,28.373 24.25,28.017 24.07,28.075 				"/>
				<polygon clip-path="url(#SVGID_6_)" fill="#FFFFFF" points="24.365,28.373 24.061,28.152 24.17,28.002 				"/>
				<polygon clip-path="url(#SVGID_6_)" fill="#FFFFFF" points="23.922,28.373 24.227,28.152 24.115,28.002 				"/>
				<polygon clip-path="url(#SVGID_6_)" fill="#FFFFFF" points="23.922,28.373 24.039,28.017 24.215,28.075 				"/>
				<polygon clip-path="url(#SVGID_6_)" fill="#FFFFFF" points="25.043,26.842 24.951,27.127 25.094,27.174 				"/>
				<polygon clip-path="url(#SVGID_6_)" fill="#FFFFFF" points="25.043,26.842 25.137,27.127 24.992,27.174 				"/>
				<polygon clip-path="url(#SVGID_6_)" fill="#FFFFFF" points="25.33,27.051 25.029,27.051 25.029,27.197 				"/>
				<polygon clip-path="url(#SVGID_6_)" fill="#FFFFFF" points="25.33,27.051 25.086,27.225 24.998,27.105 				"/>
				<polygon clip-path="url(#SVGID_6_)" fill="#FFFFFF" points="24.758,27.051 25,27.225 25.09,27.105 				"/>
				<polygon clip-path="url(#SVGID_6_)" fill="#FFFFFF" points="24.758,27.051 25.059,27.051 25.059,27.197 				"/>
				<polygon clip-path="url(#SVGID_6_)" fill="#FFFFFF" points="25.219,27.383 25.127,27.098 24.984,27.146 				"/>
				<polygon clip-path="url(#SVGID_6_)" fill="#FFFFFF" points="25.219,27.383 24.977,27.209 25.066,27.088 				"/>
				<polygon clip-path="url(#SVGID_6_)" fill="#FFFFFF" points="24.869,27.383 25.109,27.209 25.021,27.088 				"/>
				<polygon clip-path="url(#SVGID_6_)" fill="#FFFFFF" points="24.869,27.383 24.959,27.098 25.102,27.146 				"/>
				<polygon clip-path="url(#SVGID_6_)" fill="#FFFFFF" points="23.316,26.585 23.225,26.869 23.365,26.916 				"/>
				<polygon clip-path="url(#SVGID_6_)" fill="#FFFFFF" points="23.316,26.585 23.408,26.869 23.266,26.916 				"/>
				<polygon clip-path="url(#SVGID_6_)" fill="#FFFFFF" points="23.6,26.791 23.303,26.791 23.303,26.943 				"/>
				<polygon clip-path="url(#SVGID_6_)" fill="#FFFFFF" points="23.6,26.791 23.355,26.968 23.27,26.846 				"/>
				<polygon clip-path="url(#SVGID_6_)" fill="#FFFFFF" points="23.029,26.791 23.271,26.968 23.359,26.846 				"/>
				<polygon clip-path="url(#SVGID_6_)" fill="#FFFFFF" points="23.029,26.791 23.33,26.791 23.33,26.943 				"/>
				<polygon clip-path="url(#SVGID_6_)" fill="#FFFFFF" points="23.492,27.127 23.398,26.842 23.256,26.891 				"/>
				<polygon clip-path="url(#SVGID_6_)" fill="#FFFFFF" points="23.492,27.127 23.248,26.949 23.336,26.83 				"/>
				<polygon clip-path="url(#SVGID_6_)" fill="#FFFFFF" points="23.139,27.127 23.383,26.949 23.293,26.83 				"/>
				<polygon clip-path="url(#SVGID_6_)" fill="#FFFFFF" points="23.139,27.127 23.23,26.842 23.375,26.891 				"/>
				<polygon clip-path="url(#SVGID_6_)" fill="#FFFFFF" points="16.786,26.121 16.648,26.547 16.863,26.619 				"/>
				<polygon clip-path="url(#SVGID_6_)" fill="#FFFFFF" points="16.786,26.121 16.924,26.547 16.711,26.619 				"/>
				<polygon clip-path="url(#SVGID_6_)" fill="#FFFFFF" points="17.214,26.432 16.765,26.432 16.765,26.656 				"/>
				<polygon clip-path="url(#SVGID_6_)" fill="#FFFFFF" points="17.214,26.432 16.849,26.695 16.719,26.514 				"/>
				<polygon clip-path="url(#SVGID_6_)" fill="#FFFFFF" points="16.359,26.432 16.722,26.695 16.853,26.514 				"/>
				<polygon clip-path="url(#SVGID_6_)" fill="#FFFFFF" points="16.359,26.432 16.808,26.432 16.808,26.656 				"/>
				<polygon clip-path="url(#SVGID_6_)" fill="#FFFFFF" points="17.05,26.934 16.913,26.506 16.699,26.578 				"/>
				<polygon clip-path="url(#SVGID_6_)" fill="#FFFFFF" points="17.05,26.934 16.687,26.67 16.82,26.487 				"/>
				<polygon clip-path="url(#SVGID_6_)" fill="#FFFFFF" points="16.521,26.934 16.885,26.67 16.752,26.487 				"/>
				<polygon clip-path="url(#SVGID_6_)" fill="#FFFFFF" points="16.521,26.934 16.662,26.506 16.874,26.578 				"/>
				<polygon clip-path="url(#SVGID_6_)" fill="#FFFFFF" points="21,29.062 20.953,29.205 21.026,29.229 				"/>
				<polygon clip-path="url(#SVGID_6_)" fill="#FFFFFF" points="21,29.062 21.048,29.205 20.973,29.229 				"/>
				<polygon clip-path="url(#SVGID_6_)" fill="#FFFFFF" points="21.143,29.167 20.994,29.167 20.994,29.24 				"/>
				<polygon clip-path="url(#SVGID_6_)" fill="#FFFFFF" points="21.143,29.167 21.022,29.256 20.979,29.193 				"/>
				<polygon clip-path="url(#SVGID_6_)" fill="#FFFFFF" points="20.858,29.167 20.979,29.256 21.024,29.193 				"/>
				<polygon clip-path="url(#SVGID_6_)" fill="#FFFFFF" points="20.858,29.167 21.009,29.167 21.009,29.24 				"/>
				<polygon clip-path="url(#SVGID_6_)" fill="#FFFFFF" points="21.087,29.334 21.044,29.191 20.971,29.216 				"/>
				<polygon clip-path="url(#SVGID_6_)" fill="#FFFFFF" points="21.087,29.334 20.968,29.246 21.01,29.186 				"/>
				<polygon clip-path="url(#SVGID_6_)" fill="#FFFFFF" points="20.912,29.334 21.033,29.246 20.99,29.186 				"/>
				<polygon clip-path="url(#SVGID_6_)" fill="#FFFFFF" points="20.912,29.334 20.96,29.191 21.031,29.216 				"/>
			</g>
		</g>
	</g>
</g>
</svg>
