<?xml version="1.0" encoding="utf-8"?>
<!-- Generator: Adobe Illustrator 16.0.4, SVG Export Plug-In . SVG Version: 6.00 Build 0)  -->
<!DOCTYPE svg PUBLIC "-//W3C//DTD SVG 1.1//EN" "http://www.w3.org/Graphics/SVG/1.1/DTD/svg11.dtd">
<svg version="1.1" id="Layer_1" xmlns="http://www.w3.org/2000/svg" xmlns:xlink="http://www.w3.org/1999/xlink" x="0px" y="0px"
	 width="64px" height="64px" viewBox="0 0 64 64" enable-background="new 0 0 64 64" xml:space="preserve">
<g>
	<path fill="#FE3E4D" d="M64,48c0,8.8-7.2,16-16,16H16C7.2,64,0,56.8,0,48l0,0c0-8.8,7.2-16,16-16h32C56.8,32,64,39.2,64,48L64,48z"
		/>
</g>
<g>
	<path fill="#E6E6E6" d="M64,16c0,8.8-7.2,16-16,16H16C7.2,32,0,24.8,0,16l0,0C0,7.2,7.2,0,16,0h32C56.8,0,64,7.2,64,16L64,16z"/>
</g>
</svg>
